<svg xmlns="http://www.w3.org/2000/svg" viewBox="0 0 24 24" fill="none">
  <path fill="#25D366" d="M12 2C6.48 2 2 6.34 2 11.7c0 2.1.69 4.05 1.88 5.64L3 22l4.84-1.27c1.5.82 3.21 1.27 5.05 1.27 5.52 0 10-4.34 10-9.7S17.52 2 12 2z"/>
  <path fill="#fff" d="M17.7 14.8c-.08-.13-.29-.21-.61-.36-.32-.15-1.88-.91-2.17-1.02-.29-.1-.5-.15-.71.15-.2.3-.82 1.02-1 1.23-.18.21-.36.23-.68.08-.32-.15-1.34-.49-2.56-1.56-.95-.82-1.59-1.84-1.77-2.14-.18-.3-.02-.47.14-.62.14-.14.32-.36.48-.55.16-.18.2-.3.3-.5.1-.2.05-.38-.03-.53-.08-.15-.71-1.69-.97-2.31-.26-.61-.52-.53-.71-.54h-.61c-.2 0-.53.08-.8.38-.27.3-1.05 1.02-1.05 2.48s1.08 2.86 1.23 3.06c.15.2 2.12 3.41 5.22 4.64 3.1 1.22 3.1.82 3.67.77.56-.05 1.83-.74 2.09-1.46.25-.72.25-1.34.18-1.46z"/>
</svg>
