<svg xmlns="http://www.w3.org/2000/svg" width="380" height="364" viewBox="0 0 380 364" role="img" aria-label="AR+ symbol">
<title>AR+</title>
<desc>Vectorized AR+ mark extracted from the provided logo image.</desc>
<path d="M 112.00 111.00 L 110.00 113.00 L 107.00 124.00 L 103.00 130.00 L 103.00 133.00 L 100.00 137.00 L 97.00 149.00 L 92.00 158.00 L 92.00 161.00 L 90.00 163.00 L 71.00 212.00 L 65.00 223.00 L 65.00 227.00 L 58.00 241.00 L 57.00 247.00 L 49.00 264.00 L 49.00 267.00 L 46.00 271.00 L 44.00 279.00 L 41.00 285.00 L 39.00 286.00 L 39.00 291.00 L 36.00 295.00 L 36.00 298.00 L 33.00 302.00 L 32.00 308.00 L 30.00 310.00 L 26.00 323.00 L 20.00 335.00 L 20.00 343.00 L 56.00 343.00 L 62.00 330.00 L 62.00 327.00 L 65.00 323.00 L 67.00 315.00 L 70.00 311.00 L 81.00 280.00 L 85.00 274.00 L 165.00 274.00 L 195.00 343.00 L 230.00 343.00 L 230.00 332.00 L 227.00 329.00 L 228.00 320.00 L 236.00 320.00 L 238.00 322.00 L 238.00 327.00 L 251.00 343.00 L 285.00 342.00 L 285.00 334.00 L 240.00 260.00 L 240.00 252.00 L 257.00 240.00 L 257.00 238.00 L 265.00 229.00 L 275.00 207.00 L 277.00 194.00 L 277.00 176.00 L 273.00 158.00 L 264.00 141.00 L 250.00 126.00 L 230.00 116.00 L 213.00 111.00 Z M 120.00 187.00 L 128.00 187.00 L 131.00 190.00 L 137.00 204.00 L 138.00 210.00 L 148.00 230.00 L 147.00 241.00 L 101.00 240.00 L 101.00 232.00 L 103.00 230.00 L 103.00 226.00 L 107.00 219.00 L 117.00 191.00 Z M 153.00 147.00 L 208.00 147.00 L 216.00 150.00 L 227.00 158.00 L 236.00 170.00 L 239.00 179.00 L 239.00 190.00 L 237.00 200.00 L 234.00 204.00 L 234.00 208.00 L 231.00 210.00 L 230.00 213.00 L 220.00 222.00 L 213.00 226.00 L 201.00 228.00 L 185.00 227.00 L 183.00 225.00 L 183.00 221.00 L 179.00 217.00 L 179.00 214.00 L 176.00 210.00 L 176.00 206.00 L 173.00 203.00 L 169.00 191.00 L 161.00 176.00 L 159.00 168.00 L 157.00 167.00 L 153.00 157.00 Z" fill="#c9a24d" fill-rule="evenodd"/>
<path d="M 286.00 21.00 L 285.00 62.00 L 245.00 63.00 L 244.00 92.00 L 283.00 93.00 L 285.00 96.00 L 285.00 133.00 L 287.00 135.00 L 316.00 135.00 L 318.00 134.00 L 319.00 94.00 L 358.00 93.00 L 359.00 64.00 L 319.00 63.00 L 317.00 61.00 L 317.00 21.00 Z" fill="#c9a24d" fill-rule="evenodd"/>
</svg>